# xmcd
#
# Track frame offsets:
#	150
#	20213
#	35803
#	56632
#	74602
#	94003
#	113231
#	142207
#	160037
#	182157
#	200292
#
# Disc length: 2889 seconds
#
# Revision: 0
# Processed by: cddbd v1.5.2PL0 Copyright (c) Steve Scherf et al.
# Submitted via: dBpowerAMP V4.0
#
DISCID=a60b470b
DTITLE=Freedonia - Freedonia
DYEAR=2012
DGENRE=Soul
TTITLE0=I wont play your game ( no more)
TTITLE1=What did i do wrong?
TTITLE2=It Hurts
TTITLE3=Girls are dancing
TTITLE4=Shut up
TTITLE5=Running to nowhere
TTITLE6=Heaven Bells
TTITLE7=Working Class
TTITLE8=What a Day
TTITLE9=Hawaian Cosmic
TTITLE10=Everithing is Alright
EXTD=
EXTT0=
EXTT1=
EXTT2=
EXTT3=
EXTT4=
EXTT5=
EXTT6=
EXTT7=
EXTT8=
EXTT9=
EXTT10=
PLAYORDER=
